<svg id="Layer_1" data-name="Layer 1" xmlns="http://www.w3.org/2000/svg" viewBox="0 0 180 25"><defs><style>.cls-1{fill:#1a5faa;}.cls-2{fill:#c65252;}</style></defs><polygon class="cls-1" points="20.49 8.85 20.49 5.04 19.91 5.23 19.91 8.85 20.49 8.85"/><path class="cls-2" d="M17,7.31,10.46,9.52a.58.58,0,0,1-.19,0l-.18,0L3.56,7.31v5.47h0l0,.08c0,.65,3,2.1,6.72,2.1S17,13.51,17,12.86v-.08h0Z"/><polygon class="cls-1" points="3.56 6.22 10.27 8.5 16.99 6.22 19.91 5.23 20.49 5.04 20.8 4.93 10.27 1.39 -0.25 4.93 3.56 6.22"/><path class="cls-1" d="M19.51,9.75V12a.69.69,0,1,0,1.38,0V9.75a.72.72,0,0,0-.2-.49h-1A.72.72,0,0,0,19.51,9.75Z"/><polygon class="cls-2" points="19.62 8.85 19.62 9.26 19.71 9.26 20.69 9.26 20.78 9.26 20.78 8.85 20.49 8.85 19.91 8.85 19.62 8.85"/><path class="cls-1" d="M6.3,18.15A3.62,3.62,0,0,1,3.6,15.8a4,4,0,0,1-.15-1.88s0,.05,0,.08a3.61,3.61,0,0,0,2.82,2.46c.48.11,1,.13,1.45.25a4.64,4.64,0,0,1,1.89.89,2.63,2.63,0,0,1,.59.69c0,.08.07.09.12,0a3.26,3.26,0,0,1,1.83-1.39,7.09,7.09,0,0,1,1.64-.37,3.75,3.75,0,0,0,3-2,3.38,3.38,0,0,0,.22-.52s0-.1.06-.13a4,4,0,0,1-.55,2.7,3.78,3.78,0,0,1-2.33,1.54,3.6,3.6,0,0,1,.52.26A2.78,2.78,0,0,1,16.17,21a2.84,2.84,0,0,1-4.64,2.07l0,0c-.17-.14-.15-.15-.2.07a2.19,2.19,0,0,1-.69,1.3c-.29.25-.28.26-.59,0a2.25,2.25,0,0,1-.7-1.35c0-.12,0-.14-.14-.06a2.89,2.89,0,0,1-1.52.68,2.8,2.8,0,0,1-2.5-1,2.75,2.75,0,0,1-.71-1.93,2.83,2.83,0,0,1,1.71-2.56S6.25,18.22,6.3,18.15Zm2.87,2.71a1.88,1.88,0,1,0-1.88,1.89A1.88,1.88,0,0,0,9.17,20.86Zm2.28,0a1.88,1.88,0,1,0,3.75,0,1.88,1.88,0,1,0-3.75,0Zm-1.1,1.08h0v1.54s0,0,.06-.05a2.26,2.26,0,0,0,.28-1,.11.11,0,0,0,0-.07C10.54,22.2,10.45,22.06,10.35,21.93Z"/><path class="cls-1" d="M8.5,20.83a1.2,1.2,0,0,1-1.19,1.23,1.21,1.21,0,1,1,.36-2.37c.1,0,.14.06,0,.16a.39.39,0,0,0,0,.51.41.41,0,0,0,.52.08c.14-.09.15-.08.2.08A.86.86,0,0,1,8.5,20.83Z"/><path class="cls-1" d="M12.11,21a1.23,1.23,0,0,1,1.57-1.31c.1,0,.14.06.06.16a.41.41,0,0,0,.58.56c.1-.08.12,0,.15.06a1.17,1.17,0,0,1-.31,1.25,1.14,1.14,0,0,1-1.33.23A1.12,1.12,0,0,1,12.11,21Z"/><path class="cls-1" d="M26.35,5h4.23V17.45h6.05V21H26.35Z"/><path class="cls-1" d="M39.38,5H49.7V8.55H43.61v2.51h5.21V14.6H43.61v2.85H50V21H39.38Z"/><path class="cls-1" d="M55.89,5H61l4.86,16H61.4l-1.82-7.77c-.39-1.52-.79-3.46-1.18-5.06h-.1c-.34,1.62-.74,3.54-1.13,5.06L55.35,21H51Zm-1.37,9.32h7.81V17.6H54.52Z"/><path class="cls-1" d="M67.15,5h6c3.44,0,6.38,1.18,6.38,5.16s-2.94,5.46-6.38,5.46H71.38V21H67.15Zm5.75,7.28c1.67,0,2.56-.74,2.56-2.12s-.89-1.81-2.56-1.81H71.38v3.93Zm-.47,2.23,2.85-2.8L80.47,21H75.75Z"/><path class="cls-1" d="M82.63,5H87l3.54,7.13L92,15.73h.1a56.49,56.49,0,0,1-.54-6.1V5h4V21H91.28l-3.54-7.15-1.52-3.57h-.1a58.86,58.86,0,0,1,.54,6.1V21h-4Z"/><path class="cls-1" d="M99.15,5h4.22V21H99.15Z"/><path class="cls-1" d="M106.91,5h4.33l3.54,7.13,1.52,3.59h.1a56.49,56.49,0,0,1-.54-6.1V5h4V21h-4.33L112,13.84l-1.52-3.57h-.1a58.86,58.86,0,0,1,.54,6.1V21h-4Z"/><path class="cls-1" d="M122.74,13.12c0-5.35,3.69-8.4,8-8.4a7.2,7.2,0,0,1,5.21,2.11l-2.21,2.7a4,4,0,0,0-2.85-1.17c-2.16,0-3.79,1.72-3.79,4.62s1.33,4.66,4.18,4.66a2.36,2.36,0,0,0,1.23-.29V15.14h-2.36V11.7h6.1v7.62a8.08,8.08,0,0,1-5.41,2C126.33,21.28,122.74,18.58,122.74,13.12Z"/><path class="cls-1" d="M144.22,5H150c3.34,0,6,.84,6,4a3.78,3.78,0,0,1-2,3.44v.1a3.65,3.65,0,0,1,2.75,3.74c0,3.29-2.85,4.72-6.29,4.72h-6.24Zm5.65,6.25c1.38,0,2-.64,2-1.63s-.64-1.37-2-1.37h-1.43v3Zm.3,6.48c1.67,0,2.45-.59,2.45-1.77s-.78-1.62-2.45-1.62h-1.73v3.39Z"/><path class="cls-1" d="M159.26,5h4.23V21h-4.23Z"/><path class="cls-1" d="M167,5h4.33l3.54,7.13,1.52,3.59h.1a56.49,56.49,0,0,1-.54-6.1V5h4V21h-4.33l-3.53-7.15-1.53-3.57h-.1a58.86,58.86,0,0,1,.54,6.1V21h-4Z"/></svg>